<svg width="915" height="759" viewBox="0 0 915 759" fill="none" xmlns="http://www.w3.org/2000/svg">
<path d="M142.285 47.332V133H115.544V90.287L102.355 133H79.3647L66.1757 90.287V133H39.3137V47.332H72.2257L91.1017 98.757L109.494 47.332H142.285ZM150.775 98.878C150.775 91.6987 151.985 85.4873 154.405 80.244C156.906 74.92 160.294 70.8867 164.569 68.144C168.845 65.3207 173.644 63.909 178.968 63.909C183.405 63.909 187.237 64.8367 190.463 66.692C193.69 68.4667 196.15 70.927 197.844 74.073V64.756H224.585V133H197.844V123.683C196.15 126.829 193.69 129.33 190.463 131.185C187.237 132.96 183.405 133.847 178.968 133.847C173.644 133.847 168.845 132.476 164.569 129.733C160.294 126.91 156.906 122.876 154.405 117.633C151.985 112.309 150.775 106.057 150.775 98.878ZM197.844 98.878C197.844 95.248 196.917 92.4247 195.061 90.408C193.206 88.3913 190.826 87.383 187.922 87.383C185.018 87.383 182.639 88.3913 180.783 90.408C178.928 92.4247 178 95.248 178 98.878C178 102.508 178.928 105.331 180.783 107.348C182.639 109.365 185.018 110.373 187.922 110.373C190.826 110.373 193.206 109.365 195.061 107.348C196.917 105.331 197.844 102.508 197.844 98.878ZM284.443 64.272C292.267 64.272 298.358 66.8937 302.714 72.137C307.15 77.3803 309.369 84.479 309.369 93.433V133H282.628V96.821C282.628 93.5943 281.74 91.0533 279.966 89.198C278.272 87.262 275.973 86.294 273.069 86.294C270.084 86.294 267.745 87.262 266.051 89.198C264.357 91.0533 263.51 93.5943 263.51 96.821V133H236.648V64.756H263.51V75.162C265.607 71.9353 268.39 69.3137 271.859 67.297C275.408 65.2803 279.603 64.272 284.443 64.272ZM317.387 98.878C317.387 91.6987 318.597 85.4873 321.017 80.244C323.517 74.92 326.905 70.8867 331.181 68.144C335.456 65.3207 340.256 63.909 345.58 63.909C350.016 63.909 353.848 64.8367 357.075 66.692C360.301 68.4667 362.762 70.927 364.456 74.073V64.756H391.197V133H364.456V123.683C362.762 126.829 360.301 129.33 357.075 131.185C353.848 132.96 350.016 133.847 345.58 133.847C340.256 133.847 335.456 132.476 331.181 129.733C326.905 126.91 323.517 122.876 321.017 117.633C318.597 112.309 317.387 106.057 317.387 98.878ZM364.456 98.878C364.456 95.248 363.528 92.4247 361.673 90.408C359.817 88.3913 357.438 87.383 354.534 87.383C351.63 87.383 349.25 88.3913 347.395 90.408C345.539 92.4247 344.612 95.248 344.612 98.878C344.612 102.508 345.539 105.331 347.395 107.348C349.25 109.365 351.63 110.373 354.534 110.373C357.438 110.373 359.817 109.365 361.673 107.348C363.528 105.331 364.456 102.508 364.456 98.878ZM427.822 63.909C432.259 63.909 436.09 64.8367 439.317 66.692C442.544 68.4667 445.004 70.927 446.698 74.073V64.756H473.439V131.79C473.439 138.163 472.269 143.971 469.93 149.214C467.591 154.457 463.799 158.652 458.556 161.798C453.393 164.944 446.738 166.517 438.591 166.517C427.62 166.517 418.908 163.936 412.455 158.773C406.082 153.691 402.452 146.754 401.565 137.961H427.943C428.669 141.51 431.573 143.285 436.655 143.285C439.801 143.285 442.261 142.478 444.036 140.865C445.811 139.252 446.698 136.227 446.698 131.79V123.683C445.004 126.829 442.544 129.33 439.317 131.185C436.09 132.96 432.259 133.847 427.822 133.847C422.498 133.847 417.698 132.476 413.423 129.733C409.148 126.91 405.76 122.876 403.259 117.633C400.839 112.309 399.629 106.057 399.629 98.878C399.629 91.6987 400.839 85.4873 403.259 80.244C405.76 74.92 409.148 70.8867 413.423 68.144C417.698 65.3207 422.498 63.909 427.822 63.909ZM446.698 98.878C446.698 95.248 445.77 92.4247 443.915 90.408C442.06 88.3913 439.68 87.383 436.776 87.383C433.872 87.383 431.492 88.3913 429.637 90.408C427.782 92.4247 426.854 95.248 426.854 98.878C426.854 102.508 427.782 105.331 429.637 107.348C431.492 109.365 433.872 110.373 436.776 110.373C439.68 110.373 442.06 109.365 443.915 107.348C445.77 105.331 446.698 102.508 446.698 98.878ZM551.567 98.273C551.567 100.128 551.446 101.903 551.204 103.597H508.007C508.411 109.486 510.871 112.43 515.388 112.43C518.292 112.43 520.39 111.099 521.68 108.437H550.115C549.147 113.277 547.09 117.633 543.944 121.505C540.879 125.296 536.967 128.321 532.207 130.58C527.529 132.758 522.366 133.847 516.719 133.847C509.943 133.847 503.893 132.435 498.569 129.612C493.326 126.789 489.212 122.755 486.227 117.512C483.323 112.188 481.871 105.977 481.871 98.878C481.871 91.7793 483.323 85.6083 486.227 80.365C489.212 75.041 493.326 70.9673 498.569 68.144C503.893 65.3207 509.943 63.909 516.719 63.909C523.495 63.909 529.505 65.3207 534.748 68.144C540.072 70.8867 544.186 74.8393 547.09 80.002C550.075 85.1647 551.567 91.255 551.567 98.273ZM524.342 91.86C524.342 89.6013 523.616 87.9073 522.164 86.778C520.712 85.568 518.897 84.963 516.719 84.963C511.96 84.963 509.177 87.262 508.37 91.86H524.342ZM662.903 47.332L632.169 106.985V133H605.307V106.985L574.573 47.332H605.307L618.98 77.703L632.653 47.332H662.903ZM701.438 133.847C694.581 133.847 688.41 132.435 682.925 129.612C677.44 126.789 673.124 122.755 669.978 117.512C666.913 112.188 665.38 105.977 665.38 98.878C665.38 91.7793 666.913 85.6083 669.978 80.365C673.124 75.041 677.44 70.9673 682.925 68.144C688.41 65.3207 694.581 63.909 701.438 63.909C708.295 63.909 714.466 65.3207 719.951 68.144C725.436 70.9673 729.712 75.041 732.777 80.365C735.923 85.6083 737.496 91.7793 737.496 98.878C737.496 105.977 735.923 112.188 732.777 117.512C729.712 122.755 725.436 126.789 719.951 129.612C714.466 132.435 708.295 133.847 701.438 133.847ZM701.438 110.615C703.939 110.615 706.036 109.647 707.73 107.711C709.424 105.694 710.271 102.75 710.271 98.878C710.271 95.006 709.424 92.102 707.73 90.166C706.036 88.1493 703.939 87.141 701.438 87.141C698.937 87.141 696.84 88.1493 695.146 90.166C693.452 92.102 692.605 95.006 692.605 98.878C692.605 102.75 693.412 105.694 695.025 107.711C696.719 109.647 698.857 110.615 701.438 110.615ZM818.172 64.756V133H791.31V122.594C789.212 125.821 786.389 128.442 782.84 130.459C779.371 132.476 775.217 133.484 770.377 133.484C762.552 133.484 756.421 130.862 751.985 125.619C747.629 120.376 745.451 113.277 745.451 104.323V64.756H772.192V100.935C772.192 104.162 773.039 106.743 774.733 108.679C776.507 110.534 778.847 111.462 781.751 111.462C784.735 111.462 787.075 110.534 788.769 108.679C790.463 106.743 791.31 104.162 791.31 100.935V64.756H818.172ZM857.166 77.34C859.909 73.3873 863.256 70.2413 867.209 67.902C871.162 65.482 875.276 64.272 879.551 64.272V92.949H871.928C866.846 92.949 863.095 93.8363 860.675 95.611C858.336 97.3857 857.166 100.532 857.166 105.049V133H830.304V64.756H857.166V77.34Z" fill="#67E8F9"/>
<g clip-path="url(#clip0_10_126)">
<path opacity="0.4" d="M772.098 335.346C784.204 335.346 794.018 325.532 794.018 313.425C794.018 301.319 784.204 291.505 772.098 291.505C759.992 291.505 750.178 301.319 750.178 313.425C750.178 325.532 759.992 335.346 772.098 335.346Z" fill="#6C63FF"/>
<path opacity="0.4" d="M309.93 214.749C327.188 214.749 341.178 200.759 341.178 183.501C341.178 166.243 327.188 152.253 309.93 152.253C292.672 152.253 278.682 166.243 278.682 183.501C278.682 200.759 292.672 214.749 309.93 214.749Z" fill="#6C63FF"/>
<path opacity="0.4" d="M252.098 220.346C264.204 220.346 274.018 210.532 274.018 198.425C274.018 186.319 264.204 176.505 252.098 176.505C239.992 176.505 230.178 186.319 230.178 198.425C230.178 210.532 239.992 220.346 252.098 220.346Z" fill="#6C63FF"/>
<path d="M790.457 558.549C773.137 577.512 772.508 605.134 772.508 605.134C772.508 605.134 799.961 602.012 817.281 583.05C834.601 564.088 835.23 536.466 835.23 536.466C835.23 536.466 807.777 539.587 790.457 558.549Z" fill="#3F3D56"/>
<path d="M800.241 564.006C795 589.147 772.969 605.821 772.969 605.821C772.969 605.821 759.436 581.733 764.677 556.592C769.918 531.451 791.948 514.777 791.948 514.777C791.948 514.777 805.482 538.865 800.241 564.006Z" fill="#6C63FF"/>
<path d="M777.746 304.581V604.289L677.843 686.818H166.746V372.631L315.876 304.581H777.746Z" fill="#3F3D56"/>
<path opacity="0.1" d="M777.746 304.581V305.782L741.882 329.788L677.843 372.631H166.746L315.876 304.581H777.746Z" fill="black"/>
<path opacity="0.1" d="M777.746 304.581V604.289L677.843 686.818L678.567 371.907L741.882 329.788L777.167 304.581H777.746Z" fill="black"/>
<path d="M911.761 703.12C911.761 703.12 917.795 728.356 912.309 729.453C906.823 730.55 879.941 730.196 873.357 731.293C866.774 732.391 853.059 730.55 853.059 725.613C853.059 720.675 867.323 717.384 867.323 717.384C867.323 717.384 887.621 706.411 888.17 705.863C888.719 705.314 911.761 703.12 911.761 703.12Z" fill="#2F2E41"/>
<path d="M906.823 554.445C906.823 554.445 905.177 573.098 905.177 574.743C905.177 576.389 906.823 602.174 905.177 603.271C903.531 604.369 906.274 612.049 906.274 614.792C906.274 617.535 915.052 663.071 912.858 680.626C910.663 698.182 916.15 696.536 914.504 698.182C912.858 699.828 912.858 699.828 912.858 703.12C912.858 706.411 895.302 709.154 895.302 709.154L876.101 587.91L885.976 551.702L906.823 554.445Z" fill="#575A89"/>
<path opacity="0.1" d="M906.823 554.445C906.823 554.445 905.177 573.098 905.177 574.743C905.177 576.389 906.823 602.174 905.177 603.271C903.531 604.369 906.274 612.049 906.274 614.792C906.274 617.535 915.052 663.071 912.858 680.626C910.663 698.182 916.15 696.536 914.504 698.182C912.858 699.828 912.858 699.828 912.858 703.12C912.858 706.411 895.302 709.154 895.302 709.154L876.101 587.91L885.976 551.702L906.823 554.445Z" fill="black"/>
<path d="M904.08 710.8C904.08 710.8 909.566 730.55 904.08 731.647C898.594 732.745 871.712 730.391 865.128 731.488C858.545 732.585 844.829 732.745 844.829 727.807C844.829 722.87 859.094 719.578 859.094 719.578C859.094 719.578 879.392 708.606 879.941 708.057C880.489 707.508 904.08 710.8 904.08 710.8Z" fill="#2F2E41"/>
<path d="M911.761 532.5C911.761 532.5 918.344 548.41 910.663 556.639C902.983 564.868 894.205 581.327 894.205 582.424C894.205 583.521 909.566 692.696 907.372 699.828C905.177 706.96 905.726 711.349 906.274 712.446C906.823 713.543 900.788 719.578 894.205 719.578C887.622 719.578 877.746 714.64 876.649 710.252C875.552 705.863 878.295 668.008 877.746 660.876C877.198 653.744 874.455 643.32 873.357 641.126C872.26 638.931 866.226 636.737 865.128 630.154C864.031 623.57 855.253 539.632 857.996 536.889C860.739 534.146 911.761 532.5 911.761 532.5Z" fill="#575A89"/>
<path d="M870.066 406.318C880.368 406.318 888.719 397.967 888.719 387.665C888.719 377.364 880.368 369.013 870.066 369.013C859.764 369.013 851.413 377.364 851.413 387.665C851.413 397.967 859.764 406.318 870.066 406.318Z" fill="#FFB9B9"/>
<path d="M881.587 396.992C881.587 396.992 877.746 417.291 880.49 419.485C883.233 421.68 859.642 424.971 859.642 424.971C859.642 424.971 856.899 398.089 856.35 395.346C855.802 392.603 881.587 396.992 881.587 396.992Z" fill="#FFB9B9"/>
<path d="M856.35 423.325C856.35 423.325 862.934 404.124 889.816 409.61C889.816 409.61 894.753 411.256 893.108 412.902C891.462 414.548 889.816 414.548 892.01 416.193C894.205 417.839 896.948 416.193 895.302 417.839C893.656 419.485 910.115 429.36 909.018 448.013C907.92 466.666 912.858 493 909.018 497.389C905.177 501.777 911.761 520.979 910.663 524.819C909.566 528.66 917.247 533.597 913.955 535.243C910.663 536.889 851.413 546.764 849.767 535.243C848.121 523.722 849.218 531.951 847.573 529.208C845.927 526.465 845.378 521.528 846.475 515.493C847.573 509.458 850.316 494.645 849.218 489.159C848.121 483.673 849.218 437.589 852.51 432.103C855.802 426.617 856.35 423.325 856.35 423.325Z" fill="#6C63FF"/>
<path d="M867.871 557.188C867.871 557.188 876.101 588.459 865.677 588.459C855.253 588.459 855.802 556.09 855.802 556.09L867.871 557.188Z" fill="#FFB9B9"/>
<path d="M861.837 387.665C861.837 389.256 864.141 390.266 867.712 390.496H867.718C869.232 390.582 870.75 390.553 872.26 390.409C874.542 390.2 875.486 392.345 875.876 395.176C876.512 399.845 875.623 406.39 876.649 407.416C878.065 408.831 888.384 407.41 891.61 404.201C892.112 403.75 892.447 403.143 892.559 402.478C892.897 400.518 893.864 398.722 895.313 397.359C897.217 395.28 899.927 392.976 902.983 389.311C908.469 382.728 902.983 382.179 901.337 377.242C899.691 372.304 896.948 370.658 896.948 367.367C896.948 364.075 884.33 361.332 873.906 361.88C863.482 362.429 865.677 375.596 865.677 375.596C865.677 375.596 865.057 377.187 864.316 379.239C863.314 381.813 862.5 384.457 861.88 387.15C861.855 387.32 861.84 387.493 861.837 387.665Z" fill="#2F2E41"/>
<path opacity="0.1" d="M864.031 431.555C864.031 431.555 882.684 430.457 884.33 457.888C885.976 485.319 885.427 511.104 885.427 511.653C885.427 512.201 877.746 564.32 870.614 564.32C863.482 564.32 857.996 563.223 856.35 560.479C854.705 557.736 860.739 518.236 860.739 518.236C860.739 518.236 863.482 476.541 859.093 463.374C854.705 450.208 854.156 433.201 864.031 431.555Z" fill="black"/>
<path d="M861.288 428.812C861.288 428.812 879.941 427.714 881.587 455.145C883.233 482.576 882.684 508.361 882.684 508.91C882.684 509.458 875.003 561.577 867.871 561.577C860.739 561.577 855.253 560.479 853.607 557.736C851.962 554.993 857.996 515.493 857.996 515.493C857.996 515.493 860.739 473.798 856.35 460.631C851.962 447.465 851.413 430.457 861.288 428.812Z" fill="#6C63FF"/>
<path d="M565.981 178.641C565.981 178.641 557.852 155.609 551.981 162.835C546.11 170.061 561.014 182.254 561.014 182.254L565.981 178.641Z" fill="#A0616A"/>
<path d="M604.369 156.061L599.478 157.873C599.478 157.873 597.143 168.254 598.046 170.061C598.949 171.867 599.401 170.512 598.046 174.125C596.691 177.738 592.627 187.222 592.175 188.577C591.723 189.932 565.981 179.996 565.981 175.028C565.981 175.028 560.562 181.351 557.852 182.706C557.852 182.706 587.659 204.383 591.723 207.093C595.788 209.803 598.046 208.448 601.659 205.287C605.272 202.125 620.627 175.932 620.627 175.932L604.369 156.061Z" fill="#575A89"/>
<path d="M591.272 316.384C591.272 316.384 591.723 321.351 592.627 321.803C593.53 322.255 600.304 333.545 592.627 335.803C584.949 338.061 580.433 337.158 578.627 338.061C576.82 338.964 545.207 340.771 544.756 335.803C544.304 330.835 560.111 329.932 560.111 329.932C560.111 329.932 574.562 320.448 576.82 315.48C579.078 310.513 591.272 316.384 591.272 316.384Z" fill="#2F2E41"/>
<path d="M682.949 325.416C682.949 325.416 693.788 343.932 691.078 346.19C688.369 348.448 661.98 356.677 658.111 357.029C653.143 357.48 649.53 353.416 653.594 351.158C657.659 348.9 666.24 339.416 666.24 336.255V328.125L682.949 325.416Z" fill="#2F2E41"/>
<path d="M693.337 204.383C693.337 204.383 702.82 216.125 687.917 235.093L663.078 266.706C663.078 266.706 678.433 291.093 678.885 303.738C679.337 316.384 682.498 313.674 683.401 319.093C684.304 324.513 688.369 321.803 685.207 325.867C682.046 329.932 670.304 333.545 666.691 330.384C665.448 329.247 664.478 327.844 663.853 326.28C663.227 324.716 662.962 323.032 663.078 321.351C663.078 319.545 656.756 309.158 656.304 305.996C655.853 302.835 639.143 277.093 639.143 277.093C639.143 277.093 633.723 261.738 640.046 253.158C646.369 244.577 650.547 232.407 650.547 232.407C650.547 232.407 631.917 254.964 618.82 260.383C618.82 260.383 613.852 261.287 614.756 263.545C615.659 265.803 614.756 267.158 613.401 269.416C612.046 271.674 602.562 297.867 599.401 304.642C596.24 311.416 597.594 315.48 593.982 317.738C590.369 319.996 574.11 318.19 574.11 315.932C574.11 313.674 576.369 307.803 577.723 304.642C579.078 301.48 589.917 264.9 589.014 258.577C588.111 252.254 589.465 243.674 596.24 240.061C603.014 236.448 637.336 207.093 639.143 207.093C640.949 207.093 693.337 204.383 693.337 204.383Z" fill="#2F2E41"/>
<path d="M602.562 133.48C613.038 133.48 621.53 124.988 621.53 114.512C621.53 104.037 613.038 95.5444 602.562 95.5444C592.087 95.5444 583.594 104.037 583.594 114.512C583.594 124.988 592.087 133.48 602.562 133.48Z" fill="#A0616A"/>
<path d="M617.917 116.319C617.917 116.319 623.788 126.706 631.014 128.061C638.24 129.416 612.046 150.19 612.046 150.19C612.046 150.19 605.723 130.319 600.304 129.415C594.885 128.512 617.917 116.319 617.917 116.319Z" fill="#A0616A"/>
<path d="M599.401 158.77C599.401 164.641 617.014 181.351 617.014 181.351L633.724 195.351C633.724 195.351 634.175 200.319 635.982 200.77C637.788 201.222 640.046 201.222 638.24 203.932C636.433 206.641 631.917 212.512 635.982 213.416C637.207 213.602 638.442 213.72 639.68 213.768C640.764 213.831 642.038 213.89 643.469 213.944C646.811 214.061 650.993 214.138 655.523 214.107C656.81 214.102 658.12 214.087 659.452 214.061C676.527 213.723 696.308 211.758 694.691 205.287C691.982 194.448 693.788 190.835 687.917 184.964C682.046 179.093 672.562 158.77 672.562 158.77C672.562 158.77 653.595 126.706 637.788 126.706L634.505 125.843C632.979 125.441 631.366 125.529 629.893 126.095C628.421 126.661 627.163 127.676 626.299 128.995C623.129 133.823 618.129 141.076 615.207 143.415C610.691 147.028 609.987 144.436 609.987 144.436C609.987 144.436 599.401 152.899 599.401 158.77Z" fill="#575A89"/>
<path d="M639.594 227.416C639.594 227.416 626.498 247.738 634.627 251.351C642.756 254.964 647.272 230.125 647.272 230.125L639.594 227.416Z" fill="#A0616A"/>
<path d="M614.962 112.37C614.234 112.278 614.004 111.359 613.881 110.636C613.225 106.762 610.338 103.088 606.459 102.463C604.976 102.266 603.469 102.387 602.037 102.819C599.985 103.382 598.06 104.33 596.362 105.612C595.532 106.371 594.571 106.975 593.527 107.393C592.815 107.602 589.793 108.945 589.087 109.173C587.534 109.673 586.25 111.297 584.651 110.976C583.121 110.668 582.54 108.821 582.295 107.28C581.734 103.77 583.744 98.532 585.741 95.5917C587.257 93.3604 589.823 92.0763 592.388 91.2409C595.392 90.3287 598.48 89.7152 601.605 89.4093C605.824 88.911 610.194 88.6467 614.237 89.9508C618.28 91.2549 621.962 94.445 622.717 98.6258C622.874 99.4966 622.903 100.389 623.096 101.252C623.566 103.359 624.96 105.131 625.773 107.13C626.36 108.599 626.633 110.174 626.573 111.755C626.514 113.335 626.124 114.886 625.428 116.306C624.302 118.571 622.344 120.747 622.766 123.241L619.281 120.493C618.778 120.207 618.387 119.756 618.176 119.217C617.964 118.678 617.944 118.083 618.118 117.53L618.625 113.167C618.8 112.376 618.721 111.55 618.399 110.807C616.85 108.101 616.176 112.523 614.962 112.37Z" fill="#2F2E41"/>
<path opacity="0.1" d="M647.724 196.254L643.469 213.944C647.76 214.098 653.436 214.179 659.452 214.061C660.969 209.509 662.419 204.763 663.53 200.319C667.595 184.061 660.82 159.222 657.207 147.48C653.595 135.738 644.562 132.577 644.562 132.577C640.859 133.879 637.362 135.704 634.175 137.996C628.304 142.061 647.724 196.254 647.724 196.254Z" fill="black"/>
<path opacity="0.1" d="M644.111 195.351L639.68 213.768C640.764 213.831 642.038 213.89 643.469 213.944C646.811 214.061 650.993 214.138 655.523 214.107C657.153 209.27 658.729 204.167 659.917 199.416C663.982 183.157 657.207 158.319 653.595 146.577C649.982 134.835 642.078 147.706 642.078 147.706C642.078 147.706 645.24 140.028 639.369 144.093C633.498 148.157 644.111 195.351 644.111 195.351Z" fill="black"/>
<path d="M642.756 131.674C642.756 131.674 651.788 134.835 655.401 146.577C659.014 158.319 665.788 183.157 661.724 199.416C657.659 215.674 649.078 235.996 649.078 235.996C649.078 235.996 640.498 229.674 637.336 231.029L645.917 195.351C645.917 195.351 626.498 141.157 632.369 137.093C635.555 134.801 639.053 132.976 642.756 131.674Z" fill="#575A89"/>
<path d="M657.094 363.845H345.803L368.969 350.814H667.23L657.094 363.845Z" fill="#2F2E41"/>
<path d="M649.488 358.199L524.541 97.828L315.62 198.085L392.456 358.199H649.488Z" fill="#F2F2F2"/>
<path d="M482.259 200.03L371.294 253.28L374.599 260.167L485.564 206.917L482.259 200.03Z" fill="#3F3D56"/>
<path d="M511.638 261.252L400.673 314.502L403.978 321.389L514.944 268.139L511.638 261.252Z" fill="#3F3D56"/>
<path d="M531.82 164.007L504.27 177.228L517.49 204.778L545.04 191.557L531.82 164.007Z" fill="#3F3D56"/>
<path d="M561.199 225.229L533.649 238.45L546.87 266L574.42 252.779L561.199 225.229Z" fill="#3F3D56"/>
<path d="M533.718 144.924L522.372 177.206L507.077 171.83L504.984 177.785L526.214 185.246L539.672 147.017L533.718 144.924Z" fill="#57B894"/>
<path d="M563.097 206.146L551.751 238.428L536.457 233.053L534.364 239.007L555.593 246.468L569.052 208.239L563.097 206.146Z" fill="#57B894"/>
<path d="M263.087 292.97V304.28H291.687V325.99H263.087V338.99H295.587V362H234.227V269.96H295.587V292.97H263.087ZM335.323 265.8V362H306.463V265.8H335.323ZM419.337 324.69C419.337 326.683 419.207 328.59 418.947 330.41H372.537C372.971 336.737 375.614 339.9 380.467 339.9C383.587 339.9 385.841 338.47 387.227 335.61H417.777C416.737 340.81 414.527 345.49 411.147 349.65C407.854 353.723 403.651 356.973 398.537 359.4C393.511 361.74 387.964 362.91 381.897 362.91C374.617 362.91 368.117 361.393 362.397 358.36C356.764 355.327 352.344 350.993 349.137 345.36C346.017 339.64 344.457 332.967 344.457 325.34C344.457 317.713 346.017 311.083 349.137 305.45C352.344 299.73 356.764 295.353 362.397 292.32C368.117 289.287 374.617 287.77 381.897 287.77C389.177 287.77 395.634 289.287 401.267 292.32C406.987 295.267 411.407 299.513 414.527 305.06C417.734 310.607 419.337 317.15 419.337 324.69ZM390.087 317.8C390.087 315.373 389.307 313.553 387.747 312.34C386.187 311.04 384.237 310.39 381.897 310.39C376.784 310.39 373.794 312.86 372.927 317.8H390.087ZM424.565 325.34C424.565 317.713 426.125 311.083 429.245 305.45C432.452 299.73 436.872 295.353 442.505 292.32C448.225 289.287 454.725 287.77 462.005 287.77C471.538 287.77 479.555 290.457 486.055 295.83C492.642 301.203 496.802 308.657 498.535 318.19H467.985C466.858 314.377 464.648 312.47 461.355 312.47C459.015 312.47 457.152 313.553 455.765 315.72C454.465 317.887 453.815 321.093 453.815 325.34C453.815 329.587 454.465 332.793 455.765 334.96C457.152 337.127 459.015 338.21 461.355 338.21C464.648 338.21 466.858 336.303 467.985 332.49H498.535C496.802 342.023 492.642 349.477 486.055 354.85C479.555 360.223 471.538 362.91 462.005 362.91C454.725 362.91 448.225 361.393 442.505 358.36C436.872 355.327 432.452 350.993 429.245 345.36C426.125 339.64 424.565 332.967 424.565 325.34ZM553.314 337.43V362H542.394C522.287 362 512.234 351.99 512.234 331.97V312.73H503.134V288.68H512.234V271H541.094V288.68H553.054V312.73H541.094V332.49C541.094 334.223 541.484 335.48 542.264 336.26C543.13 337.04 544.517 337.43 546.424 337.43H553.314ZM578.865 282.83C573.838 282.83 569.808 281.487 566.775 278.8C563.741 276.113 562.225 272.733 562.225 268.66C562.225 264.5 563.741 261.077 566.775 258.39C569.808 255.617 573.838 254.23 578.865 254.23C583.805 254.23 587.791 255.617 590.825 258.39C593.858 261.077 595.375 264.5 595.375 268.66C595.375 272.733 593.858 276.113 590.825 278.8C587.791 281.487 583.805 282.83 578.865 282.83ZM593.165 288.68V362H564.305V288.68H593.165ZM641.039 362.91C633.673 362.91 627.043 361.393 621.149 358.36C615.256 355.327 610.619 350.993 607.239 345.36C603.946 339.64 602.299 332.967 602.299 325.34C602.299 317.713 603.946 311.083 607.239 305.45C610.619 299.73 615.256 295.353 621.149 292.32C627.043 289.287 633.673 287.77 641.039 287.77C648.406 287.77 655.036 289.287 660.929 292.32C666.823 295.353 671.416 299.73 674.709 305.45C678.089 311.083 679.779 317.713 679.779 325.34C679.779 332.967 678.089 339.64 674.709 345.36C671.416 350.993 666.823 355.327 660.929 358.36C655.036 361.393 648.406 362.91 641.039 362.91ZM641.039 337.95C643.726 337.95 645.979 336.91 647.799 334.83C649.619 332.663 650.529 329.5 650.529 325.34C650.529 321.18 649.619 318.06 647.799 315.98C645.979 313.813 643.726 312.73 641.039 312.73C638.353 312.73 636.099 313.813 634.279 315.98C632.459 318.06 631.549 321.18 631.549 325.34C631.549 329.5 632.416 332.663 634.149 334.83C635.969 336.91 638.266 337.95 641.039 337.95ZM740.196 288.16C748.602 288.16 755.146 290.977 759.826 296.61C764.592 302.243 766.976 309.87 766.976 319.49V362H738.246V323.13C738.246 319.663 737.292 316.933 735.386 314.94C733.566 312.86 731.096 311.82 727.976 311.82C724.769 311.82 722.256 312.86 720.436 314.94C718.616 316.933 717.706 319.663 717.706 323.13V362H688.846V288.68H717.706V299.86C719.959 296.393 722.949 293.577 726.676 291.41C730.489 289.243 734.996 288.16 740.196 288.16ZM812.12 362.91C805.187 362.91 799.034 361.783 793.66 359.53C788.374 357.277 784.17 354.157 781.05 350.17C777.93 346.183 776.154 341.677 775.72 336.65H803.41C803.757 338.817 804.667 340.42 806.14 341.46C807.7 342.5 809.65 343.02 811.99 343.02C813.464 343.02 814.634 342.717 815.5 342.11C816.367 341.417 816.8 340.593 816.8 339.64C816.8 337.993 815.89 336.823 814.07 336.13C812.25 335.437 809.174 334.657 804.84 333.79C799.554 332.75 795.177 331.623 791.71 330.41C788.33 329.197 785.34 327.117 782.74 324.17C780.227 321.223 778.97 317.15 778.97 311.95C778.97 307.443 780.14 303.37 782.48 299.73C784.907 296.003 788.46 293.1 793.14 291.02C797.82 288.853 803.497 287.77 810.17 287.77C820.05 287.77 827.764 290.197 833.31 295.05C838.944 299.903 842.324 306.23 843.45 314.03H817.84C817.407 312.037 816.497 310.52 815.11 309.48C813.724 308.353 811.86 307.79 809.52 307.79C808.047 307.79 806.92 308.093 806.14 308.7C805.36 309.22 804.97 310.043 804.97 311.17C804.97 312.643 805.88 313.77 807.7 314.55C809.52 315.243 812.424 315.98 816.41 316.76C821.697 317.8 826.16 318.97 829.8 320.27C833.44 321.57 836.604 323.823 839.29 327.03C841.977 330.15 843.32 334.483 843.32 340.03C843.32 344.363 842.064 348.263 839.55 351.73C837.037 355.197 833.397 357.927 828.63 359.92C823.95 361.913 818.447 362.91 812.12 362.91Z" fill="#67E8F9"/>
<path d="M263.087 292.97V291.97H262.087V292.97H263.087ZM263.087 304.28H262.087V305.28H263.087V304.28ZM291.687 304.28H292.687V303.28H291.687V304.28ZM291.687 325.99V326.99H292.687V325.99H291.687ZM263.087 325.99V324.99H262.087V325.99H263.087ZM263.087 338.99H262.087V339.99H263.087V338.99ZM295.587 338.99H296.587V337.99H295.587V338.99ZM295.587 362V363H296.587V362H295.587ZM234.227 362H233.227V363H234.227V362ZM234.227 269.96V268.96H233.227V269.96H234.227ZM295.587 269.96H296.587V268.96H295.587V269.96ZM295.587 292.97V293.97H296.587V292.97H295.587ZM262.087 292.97V304.28H264.087V292.97H262.087ZM263.087 305.28H291.687V303.28H263.087V305.28ZM290.687 304.28V325.99H292.687V304.28H290.687ZM291.687 324.99H263.087V326.99H291.687V324.99ZM262.087 325.99V338.99H264.087V325.99H262.087ZM263.087 339.99H295.587V337.99H263.087V339.99ZM294.587 338.99V362H296.587V338.99H294.587ZM295.587 361H234.227V363H295.587V361ZM235.227 362V269.96H233.227V362H235.227ZM234.227 270.96H295.587V268.96H234.227V270.96ZM294.587 269.96V292.97H296.587V269.96H294.587ZM295.587 291.97H263.087V293.97H295.587V291.97ZM335.323 265.8H336.323V264.8H335.323V265.8ZM335.323 362V363H336.323V362H335.323ZM306.463 362H305.463V363H306.463V362ZM306.463 265.8V264.8H305.463V265.8H306.463ZM334.323 265.8V362H336.323V265.8H334.323ZM335.323 361H306.463V363H335.323V361ZM307.463 362V265.8H305.463V362H307.463ZM306.463 266.8H335.323V264.8H306.463V266.8ZM418.947 330.41V331.41H419.815L419.937 330.551L418.947 330.41ZM372.537 330.41V329.41H371.467L371.54 330.478L372.537 330.41ZM387.227 335.61V334.61H386.601L386.328 335.174L387.227 335.61ZM417.777 335.61L418.758 335.806L418.997 334.61H417.777V335.61ZM411.147 349.65L410.371 349.019L410.37 349.021L411.147 349.65ZM398.537 359.4L398.959 360.307L398.966 360.303L398.537 359.4ZM362.397 358.36L361.923 359.24L361.929 359.243L362.397 358.36ZM349.137 345.36L348.26 345.839L348.264 345.847L348.268 345.855L349.137 345.36ZM349.137 305.45L348.265 304.961L348.263 304.965L349.137 305.45ZM362.397 292.32L361.929 291.437L361.923 291.44L362.397 292.32ZM401.267 292.32L400.793 293.2L400.801 293.205L400.809 293.209L401.267 292.32ZM414.527 305.06L413.656 305.55L413.662 305.56L414.527 305.06ZM390.087 317.8V318.8H391.087V317.8H390.087ZM387.747 312.34L387.107 313.108L387.12 313.119L387.133 313.129L387.747 312.34ZM372.927 317.8L371.942 317.627L371.737 318.8H372.927V317.8ZM418.337 324.69C418.337 326.64 418.21 328.499 417.957 330.269L419.937 330.551C420.205 328.681 420.337 326.727 420.337 324.69H418.337ZM418.947 329.41H372.537V331.41H418.947V329.41ZM371.54 330.478C371.764 333.746 372.565 336.359 374.078 338.169C375.624 340.019 377.803 340.9 380.467 340.9V338.9C378.279 338.9 376.71 338.199 375.612 336.886C374.481 335.533 373.745 333.401 373.535 330.342L371.54 330.478ZM380.467 340.9C382.185 340.9 383.721 340.505 385.033 339.672C386.345 338.84 387.368 337.611 388.127 336.046L386.328 335.174C385.7 336.469 384.904 337.385 383.962 337.983C383.021 338.58 381.87 338.9 380.467 338.9V340.9ZM387.227 336.61H417.777V334.61H387.227V336.61ZM416.797 335.414C415.789 340.453 413.65 344.984 410.371 349.019L411.924 350.281C415.405 345.996 417.686 341.167 418.758 335.806L416.797 335.414ZM410.37 349.021C407.178 352.969 403.098 356.129 398.109 358.497L398.966 360.303C404.204 357.818 408.53 354.478 411.925 350.279L410.37 349.021ZM398.115 358.493C393.233 360.766 387.832 361.91 381.897 361.91V363.91C388.096 363.91 393.789 362.714 398.959 360.307L398.115 358.493ZM381.897 361.91C374.76 361.91 368.424 360.424 362.866 357.477L361.929 359.243C367.81 362.362 374.475 363.91 381.897 363.91V361.91ZM362.872 357.48C357.406 354.536 353.122 350.338 350.006 344.865L348.268 345.855C351.567 351.649 356.122 356.117 361.923 359.24L362.872 357.48ZM350.015 344.881C346.988 339.331 345.457 332.828 345.457 325.34H343.457C343.457 333.105 345.047 339.949 348.26 345.839L350.015 344.881ZM345.457 325.34C345.457 317.852 346.988 311.394 350.012 305.934L348.263 304.965C345.047 310.772 343.457 317.575 343.457 325.34H345.457ZM350.01 305.939C353.126 300.38 357.41 296.141 362.872 293.2L361.923 291.44C356.118 294.565 351.562 299.08 348.265 304.961L350.01 305.939ZM362.866 293.203C368.424 290.256 374.76 288.77 381.897 288.77V286.77C374.475 286.77 367.81 288.318 361.929 291.437L362.866 293.203ZM381.897 288.77C389.035 288.77 395.325 290.256 400.793 293.2L401.742 291.44C395.943 288.317 389.32 286.77 381.897 286.77V288.77ZM400.809 293.209C406.358 296.067 410.633 300.176 413.656 305.55L415.399 304.57C412.182 298.851 407.617 294.466 401.725 291.431L400.809 293.209ZM413.662 305.56C416.766 310.93 418.337 317.294 418.337 324.69H420.337C420.337 317.006 418.702 310.283 415.393 304.559L413.662 305.56ZM391.087 317.8C391.087 315.143 390.22 312.997 388.361 311.551L387.133 313.129C388.394 314.11 389.087 315.604 389.087 317.8H391.087ZM388.388 311.572C386.621 310.1 384.434 309.39 381.897 309.39V311.39C384.041 311.39 385.754 311.98 387.107 313.108L388.388 311.572ZM381.897 309.39C379.183 309.39 376.907 310.047 375.183 311.472C373.456 312.898 372.405 314.993 371.942 317.627L373.912 317.973C374.317 315.667 375.194 314.057 376.457 313.013C377.722 311.968 379.499 311.39 381.897 311.39V309.39ZM372.927 318.8H390.087V316.8H372.927V318.8ZM429.245 305.45L428.373 304.961L428.37 304.965L429.245 305.45ZM442.505 292.32L442.036 291.437L442.031 291.44L442.505 292.32ZM486.055 295.83L485.418 296.601L485.423 296.605L486.055 295.83ZM498.535 318.19V319.19H499.733L499.519 318.011L498.535 318.19ZM467.985 318.19L467.026 318.473L467.238 319.19H467.985V318.19ZM455.765 315.72L454.923 315.181L454.915 315.193L454.907 315.206L455.765 315.72ZM455.765 334.96L454.907 335.474L454.915 335.487L454.923 335.499L455.765 334.96ZM467.985 332.49V331.49H467.238L467.026 332.207L467.985 332.49ZM498.535 332.49L499.519 332.669L499.733 331.49H498.535V332.49ZM486.055 354.85L485.423 354.075L485.418 354.079L486.055 354.85ZM442.505 358.36L442.031 359.24L442.036 359.243L442.505 358.36ZM429.245 345.36L428.367 345.839L428.371 345.847L428.376 345.855L429.245 345.36ZM425.565 325.34C425.565 317.852 427.096 311.394 430.12 305.934L428.37 304.965C425.154 310.772 423.565 317.575 423.565 325.34H425.565ZM430.117 305.939C433.233 300.38 437.517 296.141 442.979 293.2L442.031 291.44C436.226 294.565 431.67 299.08 428.373 304.961L430.117 305.939ZM442.973 293.203C448.532 290.256 454.868 288.77 462.005 288.77V286.77C454.582 286.77 447.918 288.318 442.036 291.437L442.973 293.203ZM462.005 288.77C471.338 288.77 479.12 291.395 485.418 296.601L486.692 295.059C479.989 289.518 471.739 286.77 462.005 286.77V288.77ZM485.423 296.605C491.799 301.807 495.854 309.035 497.551 318.369L499.519 318.011C497.749 308.278 493.484 300.6 486.687 295.055L485.423 296.605ZM498.535 317.19H467.985V319.19H498.535V317.19ZM468.944 317.907C468.345 315.881 467.43 314.259 466.136 313.143C464.826 312.013 463.208 311.47 461.355 311.47V313.47C462.795 313.47 463.929 313.881 464.829 314.657C465.745 315.447 466.498 316.686 467.026 318.473L468.944 317.907ZM461.355 311.47C458.635 311.47 456.471 312.761 454.923 315.181L456.607 316.259C457.832 314.346 459.394 313.47 461.355 313.47V311.47ZM454.907 315.206C453.47 317.6 452.815 321.021 452.815 325.34H454.815C454.815 321.165 455.459 318.173 456.622 316.234L454.907 315.206ZM452.815 325.34C452.815 329.659 453.47 333.08 454.907 335.474L456.622 334.446C455.459 332.507 454.815 329.515 454.815 325.34H452.815ZM454.923 335.499C456.471 337.919 458.635 339.21 461.355 339.21V337.21C459.394 337.21 457.832 336.334 456.607 334.421L454.923 335.499ZM461.355 339.21C463.208 339.21 464.826 338.667 466.136 337.537C467.43 336.421 468.345 334.799 468.944 332.773L467.026 332.207C466.498 333.994 465.745 335.233 464.829 336.023C463.929 336.799 462.795 337.21 461.355 337.21V339.21ZM467.985 333.49H498.535V331.49H467.985V333.49ZM497.551 332.311C495.854 341.645 491.799 348.873 485.423 354.075L486.687 355.625C493.484 350.08 497.749 342.402 499.519 332.669L497.551 332.311ZM485.418 354.079C479.12 359.285 471.338 361.91 462.005 361.91V363.91C471.739 363.91 479.989 361.162 486.692 355.621L485.418 354.079ZM462.005 361.91C454.868 361.91 448.532 360.424 442.973 357.477L442.036 359.243C447.918 362.362 454.582 363.91 462.005 363.91V361.91ZM442.979 357.48C437.513 354.536 433.229 350.338 430.114 344.865L428.376 345.855C431.674 351.649 436.23 356.117 442.031 359.24L442.979 357.48ZM430.123 344.881C427.096 339.331 425.565 332.828 425.565 325.34H423.565C423.565 333.105 425.154 339.949 428.367 345.839L430.123 344.881ZM553.314 337.43H554.314V336.43H553.314V337.43ZM553.314 362V363H554.314V362H553.314ZM512.234 312.73H513.234V311.73H512.234V312.73ZM503.134 312.73H502.134V313.73H503.134V312.73ZM503.134 288.68V287.68H502.134V288.68H503.134ZM512.234 288.68V289.68H513.234V288.68H512.234ZM512.234 271V270H511.234V271H512.234ZM541.094 271H542.094V270H541.094V271ZM541.094 288.68H540.094V289.68H541.094V288.68ZM553.054 288.68H554.054V287.68H553.054V288.68ZM553.054 312.73V313.73H554.054V312.73H553.054ZM541.094 312.73V311.73H540.094V312.73H541.094ZM542.264 336.26L541.556 336.967L541.575 336.986L541.595 337.003L542.264 336.26ZM552.314 337.43V362H554.314V337.43H552.314ZM553.314 361H542.394V363H553.314V361ZM542.394 361C532.493 361 525.252 358.536 520.479 353.784C515.707 349.032 513.234 341.825 513.234 331.97H511.234C511.234 342.135 513.787 349.943 519.068 355.201C524.349 360.459 532.187 363 542.394 363V361ZM513.234 331.97V312.73H511.234V331.97H513.234ZM512.234 311.73H503.134V313.73H512.234V311.73ZM504.134 312.73V288.68H502.134V312.73H504.134ZM503.134 289.68H512.234V287.68H503.134V289.68ZM513.234 288.68V271H511.234V288.68H513.234ZM512.234 272H541.094V270H512.234V272ZM540.094 271V288.68H542.094V271H540.094ZM541.094 289.68H553.054V287.68H541.094V289.68ZM552.054 288.68V312.73H554.054V288.68H552.054ZM553.054 311.73H541.094V313.73H553.054V311.73ZM540.094 312.73V332.49H542.094V312.73H540.094ZM540.094 332.49C540.094 334.342 540.506 335.916 541.556 336.967L542.971 335.553C542.461 335.044 542.094 334.105 542.094 332.49H540.094ZM541.595 337.003C542.731 338.026 544.417 338.43 546.424 338.43V336.43C544.617 336.43 543.53 336.054 542.933 335.517L541.595 337.003ZM546.424 338.43H553.314V336.43H546.424V338.43ZM566.775 278.8L567.438 278.051L567.438 278.051L566.775 278.8ZM566.775 258.39L567.438 259.139L567.444 259.133L567.449 259.128L566.775 258.39ZM590.825 258.39L590.15 259.128L590.156 259.133L590.162 259.139L590.825 258.39ZM590.825 278.8L590.162 278.051L590.162 278.051L590.825 278.8ZM593.165 288.68H594.165V287.68H593.165V288.68ZM593.165 362V363H594.165V362H593.165ZM564.305 362H563.305V363H564.305V362ZM564.305 288.68V287.68H563.305V288.68H564.305ZM578.865 281.83C574.021 281.83 570.247 280.54 567.438 278.051L566.112 279.549C569.369 282.434 573.655 283.83 578.865 283.83V281.83ZM567.438 278.051C564.62 275.556 563.225 272.449 563.225 268.66H561.225C561.225 273.018 562.863 276.671 566.112 279.549L567.438 278.051ZM563.225 268.66C563.225 264.778 564.625 261.63 567.438 259.139L566.112 257.641C562.858 260.524 561.225 264.222 561.225 268.66H563.225ZM567.449 259.128C570.259 256.559 574.029 255.23 578.865 255.23V253.23C573.647 253.23 569.357 254.674 566.1 257.652L567.449 259.128ZM578.865 255.23C583.608 255.23 587.337 256.556 590.15 259.128L591.499 257.652C588.246 254.677 584.001 253.23 578.865 253.23V255.23ZM590.162 259.139C592.974 261.63 594.375 264.778 594.375 268.66H596.375C596.375 264.222 594.742 260.524 591.488 257.641L590.162 259.139ZM594.375 268.66C594.375 272.449 592.979 275.556 590.162 278.051L591.488 279.549C594.737 276.671 596.375 273.018 596.375 268.66H594.375ZM590.162 278.051C587.349 280.542 583.616 281.83 578.865 281.83V283.83C583.993 283.83 588.234 282.431 591.488 279.549L590.162 278.051ZM592.165 288.68V362H594.165V288.68H592.165ZM593.165 361H564.305V363H593.165V361ZM565.305 362V288.68H563.305V362H565.305ZM564.305 289.68H593.165V287.68H564.305V289.68ZM621.149 358.36L621.607 357.471L621.149 358.36ZM607.239 345.36L606.373 345.859L606.377 345.867L606.382 345.874L607.239 345.36ZM607.239 305.45L606.378 304.941L606.376 304.945L607.239 305.45ZM621.149 292.32L621.607 293.209L621.607 293.209L621.149 292.32ZM660.929 292.32L660.472 293.209L660.472 293.209L660.929 292.32ZM674.709 305.45L673.843 305.949L673.847 305.957L673.852 305.964L674.709 305.45ZM674.709 345.36L673.848 344.851L673.846 344.855L674.709 345.36ZM660.929 358.36L660.472 357.471L660.472 357.471L660.929 358.36ZM647.799 334.83L648.552 335.489L648.558 335.481L648.565 335.473L647.799 334.83ZM647.799 315.98L647.034 316.623L647.04 316.631L647.047 316.639L647.799 315.98ZM634.279 315.98L635.032 316.639L635.038 316.631L635.045 316.623L634.279 315.98ZM634.149 334.83L633.368 335.455L633.382 335.472L633.397 335.489L634.149 334.83ZM641.039 361.91C633.814 361.91 627.343 360.424 621.607 357.471L620.692 359.249C626.742 362.363 633.531 363.91 641.039 363.91V361.91ZM621.607 357.471C615.878 354.522 611.38 350.318 608.097 344.846L606.382 345.874C609.858 351.669 614.634 356.131 620.692 359.249L621.607 357.471ZM608.106 344.861C604.913 339.315 603.299 332.819 603.299 325.34H601.299C601.299 333.114 602.979 339.965 606.373 345.859L608.106 344.861ZM603.299 325.34C603.299 317.86 604.913 311.411 608.103 305.955L606.376 304.945C602.979 310.756 601.299 317.566 601.299 325.34H603.299ZM608.1 305.959C611.384 300.401 615.882 296.156 621.607 293.209L620.692 291.431C614.63 294.551 609.854 299.059 606.378 304.941L608.1 305.959ZM621.607 293.209C627.343 290.256 633.814 288.77 641.039 288.77V286.77C633.531 286.77 626.742 288.317 620.692 291.431L621.607 293.209ZM641.039 288.77C648.265 288.77 654.735 290.256 660.472 293.209L661.387 291.431C655.337 288.317 648.547 286.77 641.039 286.77V288.77ZM660.472 293.209C666.195 296.155 670.646 300.396 673.843 305.949L675.576 304.951C672.186 299.064 667.45 294.552 661.387 291.431L660.472 293.209ZM673.852 305.964C677.124 311.419 678.779 317.865 678.779 325.34H680.779C680.779 317.562 679.054 310.748 675.567 304.935L673.852 305.964ZM678.779 325.34C678.779 332.815 677.124 339.307 673.848 344.851L675.57 345.869C679.054 339.973 680.779 333.119 680.779 325.34H678.779ZM673.846 344.855C670.65 350.322 666.199 354.523 660.472 357.471L661.387 359.249C667.446 356.13 672.182 351.665 675.573 345.865L673.846 344.855ZM660.472 357.471C654.735 360.424 648.265 361.91 641.039 361.91V363.91C648.547 363.91 655.337 362.363 661.387 359.249L660.472 357.471ZM641.039 338.95C644.024 338.95 646.548 337.778 648.552 335.489L647.047 334.171C645.41 336.042 643.428 336.95 641.039 336.95V338.95ZM648.565 335.473C650.593 333.058 651.529 329.628 651.529 325.34H649.529C649.529 329.372 648.645 332.268 647.034 334.187L648.565 335.473ZM651.529 325.34C651.529 321.056 650.595 317.657 648.552 315.321L647.047 316.639C648.643 318.463 649.529 321.304 649.529 325.34H651.529ZM648.565 315.337C646.566 312.958 644.039 311.73 641.039 311.73V313.73C643.413 313.73 645.392 314.669 647.034 316.623L648.565 315.337ZM641.039 311.73C638.04 311.73 635.512 312.958 633.514 315.337L635.045 316.623C636.686 314.669 638.665 313.73 641.039 313.73V311.73ZM633.527 315.321C631.483 317.657 630.549 321.056 630.549 325.34H632.549C632.549 321.304 633.435 318.463 635.032 316.639L633.527 315.321ZM630.549 325.34C630.549 329.618 631.438 333.041 633.368 335.455L634.93 334.205C633.394 332.285 632.549 329.382 632.549 325.34H630.549ZM633.397 335.489C635.407 337.786 637.979 338.95 641.039 338.95V336.95C638.553 336.95 636.531 336.034 634.902 334.171L633.397 335.489ZM759.826 296.61L759.056 297.249L759.062 297.256L759.826 296.61ZM766.976 362V363H767.976V362H766.976ZM738.246 362H737.246V363H738.246V362ZM735.386 314.94L734.633 315.599L734.648 315.615L734.663 315.631L735.386 314.94ZM720.436 314.94L721.174 315.614L721.181 315.606L721.188 315.599L720.436 314.94ZM717.706 362V363H718.706V362H717.706ZM688.846 362H687.846V363H688.846V362ZM688.846 288.68V287.68H687.846V288.68H688.846ZM717.706 288.68H718.706V287.68H717.706V288.68ZM717.706 299.86H716.706V303.233L718.544 300.405L717.706 299.86ZM726.676 291.41L726.182 290.54L726.173 290.545L726.676 291.41ZM740.196 289.16C748.354 289.16 754.596 291.88 759.057 297.249L760.595 295.971C755.696 290.074 748.85 287.16 740.196 287.16V289.16ZM759.062 297.256C763.635 302.66 765.976 310.034 765.976 319.49H767.976C767.976 309.706 765.55 301.827 760.589 295.964L759.062 297.256ZM765.976 319.49V362H767.976V319.49H765.976ZM766.976 361H738.246V363H766.976V361ZM739.246 362V323.13H737.246V362H739.246ZM739.246 323.13C739.246 319.475 738.236 316.473 736.108 314.249L734.663 315.631C736.349 317.394 737.246 319.852 737.246 323.13H739.246ZM736.138 314.281C734.103 311.955 731.343 310.82 727.976 310.82V312.82C730.849 312.82 733.029 313.765 734.633 315.599L736.138 314.281ZM727.976 310.82C724.532 310.82 721.724 311.949 719.683 314.281L721.188 315.599C722.787 313.771 725.006 312.82 727.976 312.82V310.82ZM719.697 314.266C717.665 316.491 716.706 319.487 716.706 323.13H718.706C718.706 319.84 719.566 317.376 721.174 315.614L719.697 314.266ZM716.706 323.13V362H718.706V323.13H716.706ZM717.706 361H688.846V363H717.706V361ZM689.846 362V288.68H687.846V362H689.846ZM688.846 289.68H717.706V287.68H688.846V289.68ZM716.706 288.68V299.86H718.706V288.68H716.706ZM718.544 300.405C720.708 297.075 723.581 294.366 727.178 292.275L726.173 290.545C722.317 292.787 719.21 295.711 716.867 299.315L718.544 300.405ZM727.17 292.279C730.807 290.213 735.137 289.16 740.196 289.16V287.16C734.855 287.16 730.171 288.274 726.182 290.541L727.17 292.279ZM793.66 359.53L793.268 360.45L793.274 360.452L793.66 359.53ZM775.72 336.65V335.65H774.63L774.724 336.736L775.72 336.65ZM803.41 336.65L804.398 336.492L804.263 335.65H803.41V336.65ZM806.14 341.46L805.564 342.277L805.574 342.285L805.586 342.292L806.14 341.46ZM815.5 342.11L816.074 342.929L816.1 342.911L816.125 342.891L815.5 342.11ZM804.84 333.79L805.036 332.809L805.033 332.809L804.84 333.79ZM791.71 330.41L791.372 331.351L791.38 331.354L791.71 330.41ZM782.74 324.17L781.979 324.819L781.985 324.825L781.99 324.832L782.74 324.17ZM782.48 299.73L781.642 299.184L781.639 299.189L782.48 299.73ZM793.14 291.02L793.546 291.934L793.553 291.931L793.56 291.927L793.14 291.02ZM833.31 295.05L832.652 295.803L832.658 295.808L833.31 295.05ZM843.45 314.03V315.03H844.605L844.44 313.887L843.45 314.03ZM817.84 314.03L816.863 314.242L817.034 315.03H817.84V314.03ZM815.11 309.48L814.48 310.256L814.495 310.268L814.51 310.28L815.11 309.48ZM806.14 308.7L806.695 309.532L806.725 309.512L806.754 309.489L806.14 308.7ZM807.7 314.55L807.306 315.469L807.325 315.477L807.344 315.484L807.7 314.55ZM816.41 316.76L816.603 315.779L816.602 315.779L816.41 316.76ZM829.8 320.27L829.464 321.212L829.464 321.212L829.8 320.27ZM839.29 327.03L838.524 327.672L838.532 327.683L839.29 327.03ZM839.55 351.73L840.36 352.317L840.36 352.317L839.55 351.73ZM828.63 359.92L828.244 358.997L828.238 359L828.63 359.92ZM812.12 361.91C805.295 361.91 799.277 360.801 794.047 358.608L793.274 360.452C798.79 362.766 805.079 363.91 812.12 363.91V361.91ZM794.052 358.61C788.9 356.414 784.84 353.39 781.838 349.554L780.263 350.786C783.5 354.923 787.847 358.139 793.268 360.45L794.052 358.61ZM781.838 349.554C778.837 345.719 777.133 341.397 776.717 336.564L774.724 336.736C775.174 341.957 777.024 346.647 780.263 350.786L781.838 349.554ZM775.72 337.65H803.41V335.65H775.72V337.65ZM802.423 336.808C802.802 339.179 803.824 341.049 805.564 342.277L806.717 340.643C805.51 339.791 804.712 338.454 804.398 336.492L802.423 336.808ZM805.586 342.292C807.346 343.466 809.502 344.02 811.99 344.02V342.02C809.799 342.02 808.054 341.534 806.695 340.628L805.586 342.292ZM811.99 344.02C813.591 344.02 814.985 343.692 816.074 342.929L814.927 341.291C814.283 341.742 813.337 342.02 811.99 342.02V344.02ZM816.125 342.891C817.185 342.043 817.8 340.949 817.8 339.64H815.8C815.8 340.238 815.549 340.791 814.876 341.329L816.125 342.891ZM817.8 339.64C817.8 338.62 817.514 337.694 816.907 336.914C816.31 336.145 815.455 335.587 814.426 335.196L813.714 337.064C814.506 337.366 815.016 337.74 815.328 338.141C815.632 338.531 815.8 339.013 815.8 339.64H817.8ZM814.426 335.196C812.522 334.47 809.373 333.677 805.036 332.809L804.644 334.771C808.974 335.636 811.979 336.403 813.714 337.064L814.426 335.196ZM805.033 332.809C799.774 331.774 795.447 330.658 792.041 329.466L791.38 331.354C794.907 332.588 799.333 333.726 804.647 334.771L805.033 332.809ZM792.048 329.469C788.841 328.318 785.989 326.341 783.49 323.508L781.99 324.832C784.691 327.893 787.819 330.076 791.372 331.351L792.048 329.469ZM783.501 323.521C781.188 320.809 779.97 316.994 779.97 311.95H777.97C777.97 317.306 779.266 321.637 781.979 324.819L783.501 323.521ZM779.97 311.95C779.97 307.627 781.09 303.743 783.321 300.271L781.639 299.189C779.191 302.997 777.97 307.26 777.97 311.95H779.97ZM783.318 300.276C785.624 296.734 789.015 293.948 793.546 291.934L792.734 290.106C787.905 292.252 784.19 295.272 781.642 299.184L783.318 300.276ZM793.56 291.927C798.076 289.837 803.601 288.77 810.17 288.77V286.77C803.393 286.77 797.564 287.87 792.72 290.113L793.56 291.927ZM810.17 288.77C819.891 288.77 827.342 291.156 832.652 295.803L833.969 294.297C828.186 289.237 820.209 286.77 810.17 286.77V288.77ZM832.658 295.808C838.096 300.493 841.366 306.596 842.461 314.173L844.44 313.887C843.281 305.864 839.791 299.313 833.963 294.292L832.658 295.808ZM843.45 313.03H817.84V315.03H843.45V313.03ZM818.817 313.818C818.343 311.633 817.322 309.889 815.71 308.68L814.51 310.28C815.672 311.151 816.471 312.44 816.863 314.242L818.817 313.818ZM815.741 308.704C814.127 307.393 812.018 306.79 809.52 306.79V308.79C811.702 308.79 813.32 309.314 814.48 310.256L815.741 308.704ZM809.52 306.79C807.929 306.79 806.55 307.115 805.526 307.911L806.754 309.489C807.291 309.072 808.165 308.79 809.52 308.79V306.79ZM805.586 307.868C804.469 308.613 803.97 309.786 803.97 311.17H805.97C805.97 310.3 806.252 309.827 806.695 309.532L805.586 307.868ZM803.97 311.17C803.97 312.131 804.273 313.004 804.875 313.748C805.463 314.476 806.299 315.037 807.306 315.469L808.094 313.631C807.282 313.283 806.753 312.89 806.431 312.492C806.122 312.11 805.97 311.682 805.97 311.17H803.97ZM807.344 315.484C809.248 316.21 812.222 316.96 816.218 317.741L816.602 315.779C812.625 315 809.792 314.277 808.056 313.616L807.344 315.484ZM816.217 317.741C821.473 318.775 825.885 319.933 829.464 321.212L830.137 319.328C826.436 318.007 821.921 316.825 816.603 315.779L816.217 317.741ZM829.464 321.212C832.923 322.447 835.942 324.59 838.524 327.672L840.057 326.388C837.266 323.056 833.958 320.693 830.137 319.328L829.464 321.212ZM838.532 327.683C841.016 330.566 842.32 334.639 842.32 340.03H844.32C844.32 334.328 842.938 329.734 840.048 326.377L838.532 327.683ZM842.32 340.03C842.32 344.155 841.129 347.849 838.741 351.143L840.36 352.317C842.999 348.677 844.32 344.571 844.32 340.03H842.32ZM838.741 351.143C836.355 354.433 832.877 357.06 828.244 358.997L829.016 360.843C833.917 358.793 837.718 355.96 840.36 352.317L838.741 351.143ZM828.238 359C823.709 360.929 818.344 361.91 812.12 361.91V363.91C818.55 363.91 824.192 362.897 829.022 360.84L828.238 359Z" fill="black"/>
<path d="M12.0582 608.87L68.5082 596.812L56.4501 540.362L2.59073e-05 552.42L12.0582 608.87Z" fill="#F2F2F2"/>
<path d="M66.9383 525.279C66.9383 525.279 46.2041 540.089 53.1155 546.013C60.0269 551.937 73.8497 528.241 73.8497 528.241L66.9383 525.279Z" fill="#FFB9B9"/>
<path d="M162.711 547.988C162.711 547.988 158.761 597.355 157.774 604.267C156.787 611.178 155.799 673.381 153.825 680.292C151.85 687.203 149.875 703.988 149.875 703.988H138.027C138.027 703.988 139.014 673.381 136.052 661.532C133.09 649.684 134.078 617.102 134.078 617.102C134.078 617.102 128.154 558.849 131.116 550.95C134.078 543.051 162.711 547.988 162.711 547.988Z" fill="#FFB9B9"/>
<path d="M146.913 701.026C146.913 701.026 151.85 703.988 151.85 705.963C151.85 707.938 150.863 712.874 151.85 714.849C152.837 716.824 159.749 724.723 155.799 726.697C151.85 728.672 134.078 726.697 134.078 726.697C134.078 726.697 135.065 712.874 136.052 711.887C137.04 710.9 135.065 701.026 135.065 701.026H146.913Z" fill="#2F2E41"/>
<path d="M87.2339 546.778C87.2339 546.778 85.9796 596.287 86.236 603.264C86.4925 610.241 80.9452 672.203 82.1835 679.284C83.4218 686.364 83.6237 703.264 83.6237 703.264L95.4064 704.508C95.4064 704.508 97.6373 673.965 101.827 662.494C106.016 651.022 108.454 618.516 108.454 618.516C108.454 618.516 120.46 561.206 118.344 553.04C116.227 544.874 87.2339 546.778 87.2339 546.778Z" fill="#FFB9B9"/>
<path d="M86.8804 700.629C86.8804 700.629 81.66 703.057 81.4528 705.02C81.2455 706.984 81.7092 711.997 80.52 713.857C79.3308 715.718 71.6285 722.847 75.3488 725.226C79.0691 727.604 96.9504 727.506 96.9504 727.506C96.9504 727.506 97.4194 713.655 96.5412 712.57C95.6629 711.484 98.6631 701.873 98.6631 701.873L86.8804 700.629Z" fill="#2F2E41"/>
<path d="M148.888 473.937C148.888 473.937 156.787 474.925 159.749 491.709C162.711 508.494 173.571 550.95 164.685 553.912C155.799 556.874 129.141 562.798 128.154 560.823C127.166 558.849 125.192 553.912 125.192 553.912C125.192 553.912 128.154 562.798 124.204 562.798C120.255 562.798 81.7485 556.874 82.7358 553.912C83.7232 550.95 85.6978 529.228 85.6978 529.228C85.6978 529.228 91.6219 492.697 97.546 486.773C99.2604 485.127 100.592 483.123 101.445 480.905C102.298 478.687 102.652 476.308 102.483 473.937H148.888Z" fill="#2F2E41"/>
<path d="M163.698 466.038C163.698 466.038 150.863 463.076 148.888 467.026C146.913 470.975 153.825 476.899 156.787 476.899C159.749 476.899 164.685 473.937 164.685 473.937L163.698 466.038Z" fill="#FFB9B9"/>
<path d="M137.04 382.114C146.855 382.114 154.812 374.157 154.812 364.342C154.812 354.527 146.855 346.57 137.04 346.57C127.224 346.57 119.268 354.527 119.268 364.342C119.268 374.157 127.224 382.114 137.04 382.114Z" fill="#FFB9B9"/>
<path d="M134.078 377.177C134.078 377.177 131.116 391 133.09 391C135.065 391 118.28 399.886 118.28 399.886L105.445 397.912L101.495 391.988C101.495 391.988 122.23 378.165 122.23 370.266C122.23 362.367 134.078 377.177 134.078 377.177Z" fill="#FFB9B9"/>
<path d="M125.192 391C125.192 391 128.154 389.026 129.141 389.026H137.04C138.027 389.026 150.863 391.988 150.863 391.988L158.761 436.418C158.761 436.418 144.938 459.127 154.812 476.899C154.812 476.899 151.85 474.924 138.027 475.912C124.204 476.899 99.5206 479.861 98.5333 479.861C97.5459 479.861 97.546 471.962 98.5333 469.988C99.5206 468.013 97.546 469 97.546 464.064C97.546 459.127 94.584 450.241 94.584 450.241L80.7611 399.886C80.7611 399.886 98.5333 390.013 101.495 391C104.457 391.988 113.343 394.95 115.318 393.962C117.293 392.975 125.192 391 125.192 391Z" fill="#6C63FF"/>
<path d="M147.901 392.975L150.863 391.988C150.863 391.988 156.787 391 163.698 396.924C170.609 402.848 196.28 420.621 196.28 420.621C196.28 420.621 206.154 428.519 203.192 437.405C200.23 446.291 195.293 468.013 180.483 467.026C180.483 467.026 171.597 478.874 166.66 476.899C161.723 474.924 157.774 467.026 160.736 466.038C163.698 465.051 171.597 455.178 171.597 455.178L161.723 436.418H158.761L147.901 430.494L147.901 392.975Z" fill="#6C63FF"/>
<path d="M88.6599 398.899L80.7611 399.886C80.7611 399.886 73.8497 402.848 74.8371 415.684C75.8244 428.519 68.913 486.773 71.8751 493.684C71.8751 493.684 62.0016 527.254 63.9763 528.241C65.951 529.228 77.7991 535.152 76.8118 531.203C75.8244 527.254 87.6726 499.608 87.6726 499.608C87.6726 499.608 101.495 484.798 95.5713 464.064V447.279L88.6599 398.899Z" fill="#6C63FF"/>
<path d="M151.831 381.524L139.279 384.259L137.666 378.078L138.286 384.475L118.038 388.886L117.147 385.474L117.49 389.006L104.52 391.831L101.746 365.199C98.8938 354.271 109.304 342.623 120.232 339.771L125.08 338.506C133.107 336.411 147.697 338.316 149.791 346.342C146.125 360.336 139.874 375.678 151.831 381.524Z" fill="#2F2E41"/>
</g>
<defs>
<clipPath id="clip0_10_126">
<rect width="914.817" height="687.575" fill="white" transform="translate(0 71)"/>
</clipPath>
</defs>
</svg>
