<svg width="280" height="280" viewBox="0 0 280 280" fill="none" xmlns="http://www.w3.org/2000/svg">
<g opacity="0.15">
<path d="M121.429 80.7857C121.429 69.3103 131.027 60 142.857 60H157.143C168.973 60 178.571 69.3103 178.571 80.7857V233.214C178.571 244.69 168.973 254 157.143 254H142.857C131.027 254 121.429 244.69 121.429 233.214V80.7857ZM50 163.929C50 152.453 59.5982 143.143 71.4286 143.143H85.7143C97.5446 143.143 107.143 152.453 107.143 163.929V233.214C107.143 244.69 97.5446 254 85.7143 254H71.4286C59.5982 254 50 244.69 50 233.214V163.929ZM214.286 87.7143H228.571C240.402 87.7143 250 97.0246 250 108.5V233.214C250 244.69 240.402 254 228.571 254H214.286C202.455 254 192.857 244.69 192.857 233.214V108.5C192.857 97.0246 202.455 87.7143 214.286 87.7143Z" fill="#4F46E5"/>
<rect x="46" y="111" width="65" height="20" rx="10" fill="#4F46E5"/>
<rect x="46" y="78" width="65" height="20" rx="10" fill="#4F46E5"/>
<rect x="46" y="45" width="65" height="20" rx="10" fill="#4F46E5"/>
<circle cx="237" cy="65" r="9" fill="#4F46E5"/>
<circle cx="209" cy="65" r="9" fill="#4F46E5"/>
<circle cx="238" cy="35" r="9" fill="#4F46E5"/>
<circle cx="210" cy="35" r="9" fill="#4F46E5"/>
<circle cx="182" cy="35" r="9" fill="#4F46E5"/>
<rect x="5" y="5" width="270" height="270" rx="15" stroke="#4F46E5" stroke-width="10"/>
</g>
</svg>
