<svg width="280" height="280" viewBox="0 0 280 280" fill="none" xmlns="http://www.w3.org/2000/svg">
<g opacity="0.15">
<path d="M146.154 110.385C146.154 107.406 143.404 105 140 105C136.596 105 133.846 107.406 133.846 110.385V134.615H106.154C102.75 134.615 100 137.022 100 140C100 142.978 102.75 145.385 106.154 145.385H133.846V169.615C133.846 172.594 136.596 175 140 175C143.404 175 146.154 172.594 146.154 169.615V145.385H173.846C177.25 145.385 180 142.978 180 140C180 137.022 177.25 134.615 173.846 134.615H146.154V110.385Z" fill="#4F46E5"/>
<rect x="85" y="85" width="110" height="110" rx="55" stroke="#4F46E5" stroke-width="10"/>
<rect x="5" y="5" width="270" height="270" rx="15" stroke="#4F46E5" stroke-width="10"/>
</g>
</svg>
